<svg xmlns="http://www.w3.org/2000/svg" width="112" height="100" viewBox="0 0 112 100"><path d="M33.954 78.49c.69-5.542.066-11.378.02-16.853-.065-8.13-.208-16.26-.258-24.38.086-.32.034-.654-.253-.928-.03-.03-.063-.063-.095-.092-.232-.332-.593-.35-.937-.233-2.126-.185-4.27-.23-6.402-.135-1.214.054-2.383.293-3.603.284-.607-.04-1.215-.076-1.823-.113-.176.006-2.534.278-2.48.284-.144-.015-.29.02-.418.088-.033.008-.066.02-.098.04-1.42.936-.556 4.42-.437 5.75.256 2.9.35 5.854.347 8.81-.055.123-.1.247-.125.37-.37 1.87-.2 4.01-.02 6.054-.025.658-.055 1.316-.086 1.97-.256 5.315.495 10.575.178 15.902-.145 2.412.344 4.808.096 7.212-.113 1.102-.17 2.19-.187 3.296-.017 1.15-.423 2.125-.165 3.26.13.573.574.746 1.02.667 1.686.706 4.367.032 6.064.152 1.088.076 2.26-.147 3.434-.33 1.54.048 3.12-.03 4.57.293.19.042.39 0 .574-.088.675.127 1.445-.697 1.343-1.342-.52-3.29-.272-6.617-.26-9.937zM95.808 79.377c-.03-3.638-.162-7.277-.233-10.915-.045-2.307.01-4.677-.15-7.008-.003-.39 0-.756.01-1.086.197-5.45.15-13.33-3.38-17.865-1.884-2.42-3.353-4.363-6.064-5.904-2.615-1.487-5.872-1.937-8.83-1.966-4.097-.042-9.89.63-12.45 4.135-.28.202-.556.408-.82.622-1.49 1.21-2.908 2.514-3.87 4.14.162-1.978.32-4.712-.123-6.204v-.63c-.005-.36-.32-.423-.61-.34-.074-.045-.153-.08-.24-.097-.26-.046-.52-.075-.785-.094-1.088-.84-2.815-.626-4.16-.716-1.65-.112-3.23.078-4.868.213-.77.062-1.37.23-1.95.433-.532-.037-1.064-.08-1.597-.108-.327-.02-.6.122-.8.332-.04.01-.078.026-.115.047-.223-.358-.982.072-.876.492.36 1.424.05 3.465.097 4.943.07 2.31.07 4.636.062 6.946-.016 4.554.236 9.108.22 13.66-.013 3.924.01 7.848.04 11.772-.057 4.962.023 9.918.072 14.9.006.57.366.757.79.698 1.245.74 3.07.187 4.47.256 3.052.152 6.12.23 9.175.265.284.005.622-.202.87-.483.02.002.04.007.062.008.434.025 1.01-.262 1.02-.77.2-8.59.367-17.184-.12-25.757-.23-4.077.865-8.794 3.91-11.644.93-.87 2.02-1.465 3.192-1.848 2.384-.306 4.903.186 7.064 1.252 1.952.963 2.873 2.743 3.64 4.666.052 3.873.36 7.77.575 11.607-.12 7.156-.548 14.317-.548 21.476 0 .92 1.007 1.046 1.718.773 2.347-.036 4.714.26 7.048.19 2.307-.07 5.313.498 7.43-.367.24-.008.5-.21.572-.44.19-.24.307-.533.237-.79.022-.12.034-.24.027-.36-.028-.434-.036-.866-.036-1.297.08-1.13.128-2.27.158-3.42.086-1.23.175-2.468.166-3.72zM33.17 13.24c-.972-1.197-3.593-2.943-5.73-3.013-1.368-.394-2.89-.36-4.234-.03-3.067.757-5.124 2.472-6.427 5.35-1.98 4.366-.32 9.326 3.588 11.99 4 2.726 9.49 1.578 12.458-1.964 2.88-3.437 3.28-8.717.345-12.332z"/><path fill="#fff" d="M31.774 65.815l-.243-.24c-.285-.288-.846.24-.562.523.08.082.16.163.242.244.285.287.848-.24.564-.527zM31.204 67.612c-.24.077-.388.297-.385.543l.02 1.928c.002.23.272.308.453.248.23-.075.363-.28.365-.517.008-.646.014-1.294.02-1.94.005-.243-.29-.322-.474-.26zM31.278 73.408c0-.29-.345-.385-.568-.31-.287.093-.457.353-.457.646 0 .523-.023 1.006.128 1.51.14.466.726-.004.794-.26.138-.523.104-1.046.104-1.586zM28.007 69.236c-.137-.457-.73-.006-.792.262-.073.317-.15.64-.107.967.05.396.132.736-.012 1.124-.114.308.26.48.467.248.32-.36.5-.73.63-1.19.137-.51-.043-.932-.186-1.412zM27.576 77.527c-.24.08-.385.298-.385.543 0 .37-.05.66-.21.994-.093.2.004.453.23.493.246.048.467-.134.566-.345.226-.468.275-.91.277-1.424 0-.242-.29-.32-.477-.26zM30.41 80.71c-.07-.455-.688-.186-.735.153-.036.248-.075.494-.126.74-.06.278-.047.577-.13.85-.15.495.462.632.703.242.183-.293.315-.604.38-.943.06-.32-.046-.723-.094-1.04zM28.058 84.24c-.113-.826-1.29-.37-1.353.27-.04.43-.05.846.024 1.268.04.222.037.45.082.67.033.164.106.284.062.452-.045.165.148.29.29.226.527-.236.812-.718.925-1.268.115-.57.046-1.054-.032-1.618zM29.096 62.847c-.032-.327-.503-.134-.53.11-.02.19-.036.342-.185.48-.4.38.168.802.484.367.217-.298.27-.596.232-.957zM28.094 22.38c.028-.128-.044-.02-.14.032-.11.06-.205.14-.303.214-.448.342.09.937.488.523.253-.263.61-.42.632-.828.024-.49-.596-.305-.676.057zM32.626 20.422c-.112-.783-1.12-.29-1.227.247-.06.29-.18.58-.442.732-.305.175-.55.59-.393.94.16.362.593.337.89.18.782-.412 1.297-1.207 1.17-2.1zM31.47 16.152v.27c0 .35.545.113.545-.183v-.27c0-.35-.544-.112-.544.182zM29.624 17.843c-.05-.33-.48-.18-.567.046-.052.14-.206.354-.337.42-.148.076-.19.31-.01.364.53.162.992-.308.914-.83zM29.897 13.73c-.068-.72-1.05-.27-1.135.23-.033.197-.116.368-.188.545-.163 0-.327.188-.262.344.106.252.116.598.35.778.322.247.69.04.855-.286.27-.53.44-1 .38-1.61zM91.854 48.19c-.28-.336-.798.204-.566.522.23.316.602.79.557 1.202-.044.418.437.29.523-.014.177-.626-.12-1.238-.514-1.71zM90 45.643c-.328-.495-.585-1.033-.848-1.566-.332-.672-1.27.122-.895.66.354.51.7 1.026 1.115 1.486.327.36.87-.217.63-.58zM88.558 47.554c-.268-.32-.742.188-.538.496.184.274.286.57.34.893.096.583.858.162.73-.32-.107-.393-.27-.754-.532-1.07zM85.318 44.692l-.184-.18c.005-.316-.274-.612-.524-.803-.355-.268-.73-.43-1.13-.618-.357-.166-.677.476-.392.715.26.215.525.407.812.582.17.104.342.202.512.302.037.02.138.09.14.092.012.013.026.025.04.038.007.03.023.057.068.063h.006c.03.023.036.02.02.002.074.04.16.036.236.003l.116.123c.185.19.462-.15.28-.32zM84.188 40c-.434-.16-.783.604-.334.808.525.24 1.326.626 1.602 1.166.133.264.466.045.45-.195-.06-.966-.895-1.478-1.718-1.78zM91.007 51.503c-.265-.358-.74.143-.64.47.293.948.87 1.768 1.135 2.714.177.632.995 0 .89-.508-.22-1.036-.77-1.844-1.385-2.677zM87.98 51.286c-.268-.283-.666.16-.496.453.207.353.335.787.457 1.178.114.362.61.04.575-.25-.066-.54-.152-.974-.536-1.382zM92.35 57.975c-.176-.33-.72.13-.576.425.34.692.875 1.334.725 2.146-.086.457.51.347.597-.012.244-1.017-.295-1.707-.747-2.56zM92.633 66.2c-.046-.52-1.214-.29-1.19.147.358 6.667.435 13.747-1.01 20.27-.052.223.42.19.477.018 2.1-6.46 2.314-13.738 1.723-20.435zM28.686 38.55c-.093-.098-.385.037-.316.126 2.16 2.766 1.896 6.1 1.998 9.137.1 2.94-.03 5.897-.135 8.847-.017.493 1.312.26 1.32-.15.083-3.305.116-6.603-.13-9.89-.206-2.784-.4-5.637-2.737-8.07z"/></svg>