<svg xmlns="http://www.w3.org/2000/svg" width="112" height="100" viewBox="0 0 112 100"><path d="M106.812 17.1c-1.918.198-3.874.752-5.75 1.226.31-.49.604-.98.89-1.445 1.226-2 1.896-4.183 2.812-6.313.43-.998-.848-1.445-1.498-.877-.187.002-.387.055-.597.178-3.494 2.066-7.375 3.593-11.344 2.758-1.02-1.578-4.123-3.27-4.82-3.654-1.8-.992-3.765-1.936-5.773-2.38-1.584-.353-3.31-.25-4.92-.284-1.894-.04-3.832-.26-5.703.158-3.23.72-6.152 2.51-9.03 4.066-2.556 1.38-4.416 3.763-5.7 6.283-.76 1.487-1.596 2.9-2.212 4.455-.687 1.73-.89 3.547-1.266 5.35-.39 1.86-.635 3.982-.323 5.953-1.012.003-2.035.076-2.994.045-2.494-.085-4.93-.55-7.337-1.178-4.352-1.133-8.604-2.816-12.606-4.832-4.012-2.02-7.812-4.44-11.525-6.944-1.874-1.263-3.44-2.834-4.836-4.583-.48-.602-.9-1.277-1.327-1.95-.9-.915-1.76-1.854-2.5-2.87-.12-.03-.248-.034-.373-.016-.213-.05-.424-.102-.637-.153-.188-.044-.406.022-.598.147-.166.264-.325.53-.476.802.005.044.008.09.026.13-1.205 2.233-1.368 5.193-1.715 7.626-.436 3.06.364 6.412 1.023 9.387.646 2.914 1.868 5.496 3.132 8.182.522 1.11 1.07 2.217 1.805 3.21.147.2.316.41.49.62-1.688-.748-3.256-2.125-4.682-2.906-1.453-.796-2.885.707-2.842 2.08.166 5.278 2.78 10.614 6.295 14.53 1.617 1.8 3.546 3.326 5.457 4.816-.626-.076-1.242-.11-1.837-.053-1.118.107-2.406 1.17-2.104 2.41.968 3.965 5.083 7.414 7.967 10.113 2 1.873 4.184 3.365 6.642 4.59.593.297 1.19.532 1.792.733-3.39 1.42-6.733 2.96-10.228 4.197-2.602.92-5.122 1.34-7.883 1.346-.656 0-1.327.132-1.978.205-.428.05-.855.09-1.284.13-.16.013-.282.015-.375.012-.006.02-.013.038-.018.058.13.066.316.178.553.387-.178-.157-.37-.262-.57-.332-.057.226-.076.47-.062.727 1.61 1.832 3.396 3.51 5.396 4.88 1.553.752 3.116 1.488 4.612 2.34 2.145.788 4.297 1.53 6.542 2.037 3.465.78 7.226 1.338 10.938 1.52 1.1.02 2.198.022 3.298.003 1.005-.016 2.012-.05 3.02-.097 1.124-.103 2.226-.308 3.36-.353.333-.013.67.01 1.01.05 3.13-.29 6.247-.747 9.317-1.394.862-.294 1.726-.574 2.59-.79 1.048-.263 2.054-.747 3.012-1.23 1.183-.592 2.597-.54 3.833-1.023 2.64-1.03 5.082-2.482 7.4-4.087 4.49-3.107 8.555-6.95 11.94-11.196 3.63-4.546 6.06-9.84 8.772-14.928 2.685-5.04 4.73-10.586 5.974-16.147.62-2.774 1.25-5.603 1.16-8.462-.047-1.445-.255-2.878-.302-4.324.502-.416.95-.84 1.31-1.163 1.33-1.195 2.534-2.594 3.64-4.03 1.885-1.728 3.716-3.316 5.09-5.543.54-.883.226-2.338-1.076-2.203z"/><path fill="#fff" d="M85.145 62.485s-.2-.384-.26-.855c-.044-.24-.035-.51-.04-.76.007-.252.05-.502.126-.74.188-.54.5-1.03.935-1.332.39-.31.798-.412.798-.412s.194.403.264.85c.05.234.054.466.05.733-.01.26-.06.52-.142.77-.097.282-.23.553-.387.787-.153.244-.35.41-.55.55-.38.286-.793.408-.793.408zM82.358 57.333s-.17-.415-.187-.92c-.04-.52.078-1.125.337-1.662.263-.534.666-1 1.103-1.285.41-.298.843-.418.843-.418s.17.416.188.922c.045.518-.076 1.123-.337 1.66-.265.533-.67 1-1.104 1.284-.41.298-.842.42-.842.42zM61.936 77.358s.014-.098.05-.24c.017-.14.15-.328.145-.497.01-.17.013-.297.05-.453.02-.064.037-.134.06-.202.017-.072.063-.114.087-.188.07-.125.17-.24.288-.365.133-.112.257-.246.43-.348.288-.22.653-.392.653-.392s.075.062.172.174c.092.112.22.276.293.475.08.203.146.44.12.693-.005.253-.09.52-.225.765-.152.237-.34.465-.594.604-.225.145-.52.235-.78.238-.25.035-.39-.097-.532-.143-.133-.064-.216-.12-.216-.12zM72.575 76.63s.285.33.45.78c.107.22.155.49.147.796-.01.297-.03.624-.145.92-.124.292-.282.572-.465.81-.16.245-.45.41-.676.532-.458.255-.868.264-.868.264s-.1-.453-.095-.89c-.02-.236.045-.432.047-.688.02-.243.078-.475.17-.693.063-.103.08-.223.136-.33.046-.108.104-.213.17-.315.137-.194.295-.398.453-.593.3-.372.675-.59.675-.59zM66.484 80.83s.31.216.513.51c.12.144.208.306.192.564 0 .24-.054.506-.15.746-.117.196-.27.375-.444.51-.16.142-.382.224-.598.245-.407.07-.734-.076-.734-.076s-.075-.402-.103-.71c-.02-.305-.068-.65.085-.85.03-.094.1-.165.216-.24.055-.042.134-.063.197-.128.06-.07.135-.135.204-.194.27-.24.624-.378.624-.378zM54.902 81.524s.31.216.513.51c.12.144.21.306.193.565 0 .24-.053.505-.148.746-.12.196-.273.376-.447.512-.16.14-.383.222-.6.243-.406.072-.733-.076-.733-.076s-.073-.4-.1-.71c-.023-.305-.07-.648.084-.848.03-.095.1-.165.216-.24.054-.043.132-.064.196-.13.06-.07.134-.134.203-.193.268-.24.622-.38.622-.38zM59.622 82.9s.008-.1.035-.244c.008-.14.13-.336.113-.505-.002-.17-.008-.298.02-.456.017-.065.03-.136.047-.206.013-.072.057-.117.076-.19.062-.13.155-.252.265-.385.125-.12.24-.262.405-.374.274-.24.63-.434.63-.434s.077.058.182.163c.1.104.237.26.322.454.092.197.173.43.164.685.01.252-.057.52-.176.776-.138.247-.31.485-.555.64-.218.16-.507.27-.765.288-.25.052-.396-.07-.542-.108-.135-.058-.22-.107-.22-.107zM70.55 71.04s.31.216.513.51c.12.144.208.306.192.565 0 .24-.053.506-.148.746-.12.197-.272.376-.446.512-.16.14-.38.222-.597.243-.407.07-.734-.076-.734-.076s-.076-.402-.104-.712c-.022-.304-.067-.647.085-.847.03-.094.1-.165.217-.24.054-.042.133-.063.196-.127.06-.07.135-.136.204-.195.268-.24.623-.378.623-.378zM76.108 74.833s-.17-.415-.187-.92c-.04-.52.078-1.124.336-1.66.264-.536.666-1.003 1.103-1.287.41-.297.842-.417.842-.417s.17.415.188.92c.044.52-.077 1.124-.337 1.66-.266.534-.67 1-1.104 1.285-.41.297-.842.418-.842.418zM81.184 65.365s-.005-.093 0-.226c.006-.064.01-.147.023-.222-.014-.077-.04-.158-.065-.212-.03-.06-.07-.104-.07-.187-.01-.07-.016-.138-.013-.195.003-.14.04-.245.103-.365.136-.215.405-.4.746-.48.312-.094.683-.086.683-.086s.235.285.342.604c.13.332.123.698-.067 1.007-.087.147-.24.288-.397.386-.088.055-.184.096-.277.127-.08.023-.215.062-.332.08-.108.02-.215.012-.3-.004-.066-.028-.136-.072-.19-.104-.114-.07-.186-.125-.186-.125zM73.684 66.115s-.005-.093 0-.226c.006-.064.01-.147.023-.222-.014-.077-.04-.158-.065-.212-.03-.06-.07-.104-.07-.187-.01-.07-.016-.138-.013-.195.003-.14.04-.245.103-.365.136-.215.405-.4.746-.48.312-.094.683-.086.683-.086s.235.285.342.604c.13.332.123.698-.067 1.007-.087.147-.24.288-.397.386-.088.055-.184.096-.277.127-.08.023-.215.062-.332.08-.108.02-.215.012-.3-.004-.066-.028-.136-.072-.19-.104-.114-.07-.186-.125-.186-.125zM88.31 51.615s-.006-.093 0-.226c.005-.064.008-.147.022-.222-.014-.077-.04-.158-.065-.212-.03-.06-.07-.104-.07-.187-.01-.07-.016-.138-.013-.195.004-.14.04-.245.104-.365.136-.215.405-.4.746-.48.313-.094.684-.086.684-.086s.235.285.342.604c.13.332.123.698-.067 1.007-.087.147-.24.288-.397.386-.09.055-.185.096-.278.127-.08.023-.215.062-.332.08-.11.02-.216.012-.3-.004-.067-.028-.137-.072-.19-.104-.115-.07-.187-.125-.187-.125zM59.35 86.022s.087 0 .21.013c.118.03.275-.006.41.114.07.054.146.125.2.212.062.1.1.15.13.232.07.16.08.312.056.457-.063.284-.298.486-.608.548-.283.077-.634.04-.634.04s-.268-.23-.44-.447c-.196-.23-.3-.426-.274-.55.014-.062.065-.113.138-.15.036-.016.09-.06.137-.05.05-.003.118-.017.182-.04.13-.038.222-.192.324-.253.095-.076.17-.125.17-.125zM65.697 20.158c-.457.438-.85.916-1.227 1.425-.36.493-.62 1.025-1.12 1.407-.367.278-.337 1.075.257.818.662-.286 1.21-.733 1.727-1.228.533-.508.887-1.162 1.334-1.74.53-.68-.426-1.2-.97-.682zM59.07 21.8c-.657.81-.896 1.687-.762 2.717.07.53.81.185.846-.205.057-.626.25-1.276.682-1.75.573-.628-.236-1.41-.766-.76zM61.062 27.03c-.594.662-1.004 1.426-1.477 2.172-.21.33.138.742.476.47.685-.548 1.186-1.23 1.767-1.878.56-.627-.2-1.397-.765-.764zM59.066 16.686c-.77.03-1.073 1.37-.14 1.334.773-.03 1.077-1.372.14-1.334zM56.926 20.646c-.01-.012-.02-.024-.032-.035-.212-.245-.498-.09-.67.144-.548.103-.726 1.104-.09.963.327-.075.634-.208.805-.514.104-.185.13-.388-.014-.557zM76.745 8.5c-5.182.08-9.906 2.15-14.117 4.9-.71.465-.05 1.236.655.832 4.218-2.422 8.53-4.466 13.412-5.342.2-.038.327-.39.05-.39zM56.56 26.8c-.052 0-.075.09-.013.088.053-.002.076-.09.014-.088zM55.838 27.51c-.506.02-.71.903-.098.88.503-.02.712-.904.098-.88zM57.312 29.396c-.506.02-.71.902-.098.878.503-.02.712-.903.098-.878zM66.062 16.27c-.506.02-.71.903-.098.88.503-.02.712-.904.098-.88zM56.52 32.343c-.104-.066-.206-.135-.312-.2-.377-.244-.8.382-.563.698l.233.308c.333.44 1.23-.423.643-.805zM63.375 17.597c-.105-.066-.207-.135-.313-.2-.377-.244-.8.382-.563.698l.232.307c.333.44 1.232-.423.643-.805zM47.086 86.528c-6.265 2.035-14.22.932-20.6-.135-.377-.062-.694.602-.246.686 6.384 1.19 14.692 2.16 20.89-.26.173-.067.174-.36-.044-.292z"/></svg>