<svg xmlns="http://www.w3.org/2000/svg" width="112" height="100" viewBox="0 0 112 100"><path d="M90.188 9.805c.294-.73.606-1.452.95-2.155.008-.346-.077-.68-.335-.898-1.383-1.17-2.957-1.223-4.662-1.146-2.35.104-4.557-.173-6.89-.336-1.49-.104-3.915-.902-5.244.13-.108.084-.214.186-.32.285-.706 1.4-1.448 2.78-2.226 4.137l-.03.113c-.192.354-.38.71-.562 1.065-1.446 2.83-2.485 5.923-3.74 8.853-1.45 3.387-3.184 6.43-5.162 9.48-1.872 2.884-3.296 5.9-4.73 9.05-1.528 3.353-2.985 6.743-4.553 10.07-.834 1.397-1.518 2.94-2.204 4.456-.838 1.594-1.72 3.163-2.67 4.692-.404.648-.34 1.213-.047 1.587.977 2.906 2.757 5.486 4.017 8.255 1.496 3.286 2.932 6.536 4.095 9.985 1.214 3.603 2.75 7 4.173 10.51.284.7.58 1.44.892 2.197.7 1.416 1.377 2.844 2.037 4.28 4.953.148 9.864 1.085 14.867.93 1.014-.03 2.032-.124 3.053-.247-.474-1.327-.93-2.66-1.367-4-.54-1.506-1.083-3.008-1.638-4.506-.58-1.264-1.158-2.528-1.725-3.8-.82-1.526-1.66-3.042-2.384-4.615-.662-1.44-1.365-2.852-2.075-4.26-.347-.762-.69-1.525-1.023-2.293-.663-1.52-1.352-3.02-2.06-4.512-.922-2.687-1.993-5.305-3.16-7.874 4.085-7.672 8.066-15.43 11.885-23.236 1.762-3.602 3.535-7.26 5.202-10.98.38-.723.757-1.447 1.144-2.168 2.26-4.21 4.538-8.518 6.422-12.933.023-.038.045-.08.07-.118zM49.663 43.435c-.02-.127-.043-.252-.067-.375-.123-.46-.25-.92-.374-1.382-.238-.688-.54-1.34-.873-1.978-.075-.106-.147-.215-.22-.32-.082-.173-.162-.348-.24-.522-.54-.956-1.12-1.898-1.62-2.903-.314-.63-.626-1.264-.94-1.896-.106-.194-.212-.39-.314-.584-.285-.54-.542-1.093-.793-1.646-.53-1.068-1.063-2.134-1.59-3.204-.332-.677-.66-1.354-.99-2.032l-.075-.113c-.218-.31-.99-1-1.038-1.33-.046-.313-.205-.473-.404-.525-.006-.008-.013-.013-.02-.02-.002-.174-.05-.335-.143-.465-.338.003-.646-.103-.913-.286-1.775-.01-3.55-.047-5.327-.098-.082-.01-.166-.016-.247-.025-2.26-.286-4.52-.25-6.792-.193-.19.005-.357.072-.504.176-.84.24-1.603 1.24-1.16 2.198.37.806.765 1.595 1.168 2.378 2.13 4.41 4.09 8.91 6.237 13.31.138.283.254.563.357.844-1.82 4.2-3.372 8.552-5.368 12.644l-.688 1.268-.527.97c-1.067 3.58-2.797 6.93-4.736 10.116-.285.688-.568 1.376-.85 2.064 3.853.484 7.705.984 11.536 1.61 1.185-.02 2.368-.125 3.387-.64 1.933.106 5.035-7.196 5.71-8.326 2.004-3.35 3.87-6.818 5.445-10.427.75-1.715 1.6-3.453 2.153-5.256.222-.725.597-1.48.753-2.255.08-.067.15-.143.217-.22-.067-.165-.12-.347-.152-.555zM39.14 26.993c.037-.05.07-.104.103-.16.113.273.25.544.384.81-.173-.216-.34-.44-.486-.65z"/><path fill="#fff" d="M86.55 9.42c-.036.03-.077.046-.12.05-.14.03-.303.277-.15.362-.793 1.286-1.517 2.567-2.04 4.02-.187.517.452.64.68.253.83-1.415 1.644-2.787 2.166-4.376.136-.413-.282-.548-.537-.31zM82.226 17.758c-.544 1.205-1.232 2.242-1.542 3.56-.112.468.515.335.642.034.5-1.192 1.1-2.276 1.368-3.572.07-.348-.374-.232-.468-.022zM79.787 13.433c-.47 1.066-.837 2.108-1.115 3.25-.18.752.856.575 1.057.063.423-1.086.89-2.09 1.114-3.252.152-.785-.844-.545-1.057-.06zM77.623 20.593c-.266-.177-.722.346-.457.57.342.29-.684 1.987-.833 2.27-.36.682-.728 1.327-.984 2.063-.142.402.34.48.52.192.59-.942 1.137-1.86 1.6-2.887.235-.522.8-1.776.153-2.207zM78.55 26.652c-.434 1.004-.634 2.196-1.28 3.074-.158.215.107.387.272.225.876-.864 1.126-2.064 1.627-3.173.21-.467-.45-.514-.62-.125zM83.86 8.278c-.2.36-.378.73-.58 1.088-.198.352-.316.782-.653 1.013-.55.377-.288 1.23.367.893 1.002-.52 1.328-1.65 1.703-2.68.23-.627-.568-.804-.838-.315zM74.164 19.905c-.167.3-.313.612-.455.927-.085.185-.19.445-.3.602-.134.19-.166.492-.008.677.215.248.547.12.75-.06.235-.21.443-.476.543-.788.11-.346.188-.7.31-1.04.223-.632-.567-.806-.84-.317zM78.158 10.324c-.12 0-.18.227-.03.227.118 0 .18-.226.03-.226zM75.312 15.117c-.018.227-.11.436-.182.646-.094.28-.228.54-.4.772-.186.25.125.44.316.26.478-.456.892-1.113.902-1.82.006-.412-.614-.187-.636.142zM64.728 50.677c-.49 1.35-1.156 2.605-1.75 3.904-.048.047-.087.1-.097.146-.014.055-.027.11-.044.164-.036.08-.073.156-.108.237.006 0 .007-.003.012-.003-.13.365.277.657.553.328 1.112-1.336 2.136-2.795 2.645-4.525.286-.973-.927-1.04-1.21-.25zM69.657 43.043c-.027.38-.305.99-.44 1.458-.175.61-.33 1.213-.48 1.828-.095.37.383.41.56.213.477-.535.778-1.144 1.09-1.8.25-.524.548-1.204.574-1.804.04-.982-1.243-.7-1.303.107zM75.65 34.003c-.05-.208-.19-.376-.41-.343.03-.005-.275-.253-.236-.222-.14-.11-.38.146-.298.3.02.158.08.192.174.102-.1.09-.17.236-.19.375-.05.363-.082.598-.27.922-.34.588-.7 1.164-.974 1.797-.312.73.676.94.99.37.555-.998 1.51-2.02 1.214-3.3zM65.657 44.614c-.16-.186-.415-.09-.566.05l-.485.446c-.174.16-.27.494-.1.694.23.265.57.048.74-.17.135-.17.27-.34.405-.513.107-.133.122-.373.007-.506zM71.226 35.196c-.21-.244-.617-.16-.81.067-.293.347-.47.712-.578 1.165-.08.34-.126.705-.33.99-.346.48.246.876.612.506.26-.265.428-.583.577-.93.124-.285.208-.693.408-.93.194-.227.355-.596.12-.868zM39.844 58.118c-.912 1.324-1.062 3.126-2.122 4.334-.406.463.113 1.07.513.594 1.143-1.36 1.338-3.168 2.088-4.75.17-.36-.313-.42-.48-.178zM43.145 52.384c-.43.776-.74 1.553-1.014 2.408-.168.524.446.64.686.254.466-.756.876-1.495 1.193-2.338.242-.645-.588-.825-.865-.324zM39.76 53.425c-.117.016-.235.033-.353.048-.18.025-.372.342-.25.474-.617.766-.925 1.746-1.187 2.725-.152.572.545.61.71.144.354-1.007.67-2.067 1.27-2.942.122-.177.05-.483-.19-.45zM35.91 60.31c-.248.408-.486.773-.605 1.248-.078.312-.17.613-.027.92l.013-.016c.083.154.32.207.482-.03.39-.568.63-1.194.85-1.856.178-.544-.467-.67-.712-.266zM36.497 56.156c-.034-.805-1.153-.35-1.21.26-.06.6-.39 1.167-.586 1.728-.242.697.604.855.918.343.226-.366.507-.706.69-1.103.173-.38.207-.812.19-1.228zM42.993 47.345c-.212-.043-.403.123-.487.32-.14.322-.263.65-.41.972-.13.284-.28.684-.606.737-.183.033-.406.452-.12.47 1.023.058 1.436-1.246 1.818-2.043.086-.18-.006-.418-.195-.455zM31.213 62.612c-.288-.06-.52.166-.643.42-.362.748-.72 1.473-.988 2.264-.19.562.485.695.734.276.45-.755.797-1.546 1.156-2.354.108-.243-.005-.555-.26-.606zM32.48 65.97c-.356.566-.556 1.258-1.002 1.76-.38.426.1.988.477.553.49-.568.9-1.354 1.132-2.088.146-.47-.394-.567-.608-.225zM38.416 46.46c-.68 1.078-.984 2.37-1.563 3.51-.057.112.1.13.15.056.72-1.03 1.305-2.175 1.928-3.274.244-.43-.277-.666-.514-.292zM62.92 83.804c-1.583-3.86-3.062-7.767-4.586-11.654-.81-2.066-3.497-9.257-4.428-10.38-.043-.05-1.825-2.362-1.808-2.308 1.166 3.577 2.77 7.048 4.11 10.564 1.483 3.898 3.005 7.787 4.66 11.605.098.224 2.136 2.377 2.052 2.174zM45.132 41.24c-1.27-2.784-2.586-5.538-3.94-8.274-1.09-2.194-2.08-4.508-3.51-6.467-.063-.086-.293 1.385-.262 1.47 1.89 5.13 4.774 10.018 7.106 14.934.153.322.74-1.368.606-1.663z"/></svg>